<svg xmlns="http://www.w3.org/2000/svg" viewBox="0 0 1440 900" preserveAspectRatio="xMidYMid slice">
  <rect width="1440" height="900" fill="#ffffff"/>

  <!-- Connector lines -->
  <g stroke="#d1d5db" stroke-width="1" opacity="0.7">
    <!-- Top-left cluster -->
    <line x1="68" y1="55" x2="228" y2="88"/>
    <line x1="228" y1="88" x2="296" y2="170"/>
    <line x1="68" y1="55" x2="46" y2="192"/>
    <line x1="46" y1="192" x2="88" y2="296"/>
    <line x1="88" y1="296" x2="50" y2="420"/>
    <line x1="46" y1="192" x2="296" y2="170"/>
    <line x1="296" y1="170" x2="88" y2="296"/>
    <line x1="228" y1="88" x2="390" y2="60"/>
    <line x1="390" y1="60" x2="520" y2="110"/>
    <line x1="68" y1="55" x2="130" y2="18"/>
    <line x1="130" y1="18" x2="390" y2="60"/>

    <!-- Bottom-left cluster -->
    <line x1="50" y1="420" x2="78" y2="578"/>
    <line x1="78" y1="578" x2="46" y2="666"/>
    <line x1="46" y1="666" x2="90" y2="700"/>
    <line x1="90" y1="700" x2="128" y2="660"/>
    <line x1="128" y1="660" x2="78" y2="578"/>
    <line x1="46" y1="666" x2="60" y2="724"/>
    <line x1="90" y1="700" x2="210" y2="698"/>
    <line x1="210" y1="698" x2="290" y2="700"/>
    <line x1="128" y1="660" x2="210" y2="698"/>
    <line x1="60" y1="724" x2="90" y2="700"/>
    <line x1="50" y1="420" x2="128" y2="660"/>

    <!-- Bottom-right cluster -->
    <line x1="1300" y1="521" x2="1213" y2="578"/>
    <line x1="1213" y1="578" x2="1310" y2="648"/>
    <line x1="1310" y1="648" x2="1218" y2="648"/>
    <line x1="1218" y1="648" x2="1213" y2="578"/>
    <line x1="1310" y1="648" x2="1390" y2="710"/>
    <line x1="1390" y1="710" x2="1300" y2="725"/>
    <line x1="1300" y1="725" x2="1218" y2="648"/>
    <line x1="1390" y1="710" x2="1440" y2="680"/>
    <line x1="1300" y1="521" x2="1390" y2="520"/>
    <line x1="1390" y1="520" x2="1390" y2="710"/>
    <line x1="1185" y1="590" x2="1213" y2="578"/>

    <!-- Top-right cluster -->
    <line x1="1085" y1="67" x2="1195" y2="86"/>
    <line x1="1195" y1="86" x2="1265" y2="117"/>
    <line x1="1265" y1="117" x2="1335" y2="155"/>
    <line x1="1335" y1="155" x2="1265" y2="254"/>
    <line x1="1265" y1="254" x2="1195" y2="86"/>
    <line x1="1265" y1="254" x2="1300" y2="521"/>
    <line x1="1335" y1="155" x2="1390" y2="520"/>
    <line x1="1085" y1="67" x2="920" y2="80"/>
    <line x1="920" y1="80" x2="1085" y2="67"/>
    <line x1="1440" y1="255" x2="1335" y2="155"/>
    <line x1="1440" y1="255" x2="1265" y2="254"/>
  </g>

  <!-- Small gray nodes -->
  <g fill="#9ca3af" opacity="0.6">
    <circle cx="228" cy="88" r="5"/>
    <circle cx="296" cy="170" r="5"/>
    <circle cx="130" cy="18" r="5"/>
    <circle cx="390" cy="60" r="5"/>
    <circle cx="520" cy="110" r="5"/>
    <circle cx="88" cy="296" r="5"/>
    <circle cx="128" cy="660" r="5"/>
    <circle cx="210" cy="698" r="5"/>
    <circle cx="290" cy="700" r="5"/>
    <circle cx="1085" cy="67" r="5"/>
    <circle cx="1195" cy="86" r="5"/>
    <circle cx="1265" cy="117" r="5"/>
    <circle cx="1335" cy="155" r="5"/>
    <circle cx="1265" cy="254" r="5"/>
    <circle cx="1440" cy="255" r="5"/>
    <circle cx="1185" cy="590" r="5"/>
    <circle cx="1213" cy="578" r="5"/>
    <circle cx="1310" cy="648" r="5"/>
    <circle cx="1218" cy="648" r="5"/>
    <circle cx="1300" cy="725" r="5"/>
    <circle cx="920" cy="80" r="5"/>
    <circle cx="60" cy="724" r="5"/>
    <circle cx="50" cy="420" r="5"/>
  </g>

  <!-- Green accent nodes -->
  <g fill="#10B981">
    <circle cx="68" cy="55" r="9"/>
    <circle cx="46" cy="192" r="9"/>
    <circle cx="78" cy="578" r="9"/>
    <circle cx="46" cy="666" r="9"/>
    <circle cx="90" cy="700" r="9"/>
    <circle cx="1300" cy="521" r="9"/>
    <circle cx="1390" cy="520" r="9"/>
    <circle cx="1390" cy="710" r="9"/>
  </g>
</svg>
